Simulation
nRows=16
nColumns=15
endheader
time  TH_x TH_y TH_z SC_y  SC_z  SC_x  AC_y  AC_z  AC_x  GH_y  GH_z  GH_yy  EL_x  PS_y
1.15  0.000000  0.000000  0.000000  -32.74852750074495  7.790336447598321  16.859466133174617  73.77949472133366  -5.060897654838714  5.99226904826398  64.02018197138476  42.0607666545635  -73.7588440170001  29.20271389904422  0.000000
1.173  0.000000  0.000000  0.000000  -32.73815993036194  7.788235385815131  16.87219734909916  73.82684166634516  -5.088532738459933  6.031133964592336  64.10170483047688  41.9954289730021  -73.7291639152857  29.245151586912325  0.000000
1.196  0.000000  0.000000  0.000000  -32.73291816188519  7.790117679877718  16.88636938958903  73.85497756572705  -5.103042266366947  6.053037104613369  64.15069330796382  41.94837955515846  -73.69072237021535  29.26777164783952  0.000000
1.219  0.000000  0.000000  0.000000  -32.734363840600196  7.79640221263039  16.90290210053775  73.86482180981433  -5.10459972616067  6.058136423161259  64.16611431516193  41.919903104678895  -73.64201396044908  29.269919265296817  0.000000
1.242  0.000000  0.000000  0.000000  -32.74095965369858  7.80673456750248  16.920978221762557  73.85548929594009  -5.093216646330022  6.046346078628975  64.14755439698479  41.90983460296398  -73.58167317585928  29.251078802527804  0.000000
1.265  0.000000  0.000000  0.000000  -32.75425498870791  7.821462313883296  16.94154647153446  73.82831490236465  -5.069268766909447  6.018230311351713  64.09447604799284  41.918218660797805  -73.50787927527172  29.21086484109206  0.000000
1.288  0.000000  0.000000  0.000000  -32.77267118992893  7.840176028742655  16.96380090764421  73.78280974225022  -5.032947399627981  5.974103676925669  64.00699791988232  41.94465422639425  -73.41901927635584  29.149049273413482  0.000000
1.311  0.000000  0.000000  0.000000  -32.797723205057814  7.863161877894208  16.98871783285072  73.72070382602448  -4.984822867157713  5.914911717201237  63.88510129599891  41.98897394168589  -73.31306950808448  29.06554007128228  0.000000
1.334  0.000000  0.000000  0.000000  -32.827810612338496  7.889942557879222  17.015512972279662  73.6418834050408  -4.92526919789258  5.841334972752362  63.72942381794848  42.050579003413574  -73.18824587849852  28.960417994924036  0.000000
1.357  0.000000  0.000000  0.000000  -32.86442312423557  7.920750251426793  17.04521212536738  73.54844670239343  -4.855052981421931  5.754643700084368  63.54041106418128  42.12914658663157  -73.0423796876195  28.833899111510274  0.000000
1.38  0.000000  0.000000  0.000000  -32.90596366638427  7.955051874287692  17.077091831435844  73.4406188026055  -4.7747208092447835  5.655835656902098  63.31914681624004  42.22391603266118  -72.87353632512853  28.686383522144208  0.000000
1.403  0.000000  0.000000  0.000000  -32.9539309468084  7.993031450964194  17.11226478838455  73.32083607321889  -4.685220251743302  5.546416479865104  63.066419950426116  42.334488125155985  -72.67943168772932  28.518402603194225  0.000000
1.426  0.000000  0.000000  0.000000  -33.006789135540764  8.03409415437127  17.15011064739524  73.18959920501436  -4.587245553334785  5.427622970738098  62.78361302265029  42.460004639803444  -72.45798361993694  28.330688836303725  0.000000
1.449  0.000000  0.000000  0.000000  -33.06614200563658  8.078361778552313  17.19188753154288  73.04964570943613  -4.48184419402079  5.301049805567387  62.471675861543474  42.600094325366335  -72.20677826658644  28.124099177576497  0.000000
1.472  0.000000  0.000000  0.000000  -33.13064698760254  8.125110611299652  17.237107001397764  72.90167803294126  -4.369765701270154  5.168018274299871  62.132027079723294  42.75393719098119  -71.92355925180884  27.899718520802615  0.000000
1.4949999999999999  0.000000  0.000000  0.000000  -33.20233135285329  8.17436899752718  17.28722231125633  72.74868381588166  -4.251913492870453  5.030084975750527  61.765594268550096  42.921280437780545  -71.60572783795132  27.65876570993118  0.000000
